<?xml version="1.0" encoding="UTF-8" standalone="no"?>
<!-- Created with Inkscape (http://www.inkscape.org/) -->

<svg
   width="300"
   height="300"
   viewBox="0 0 79.374997 79.375"
   version="1.1"
   id="svg676"
   inkscape:version="1.2.2 (732a01da63, 2022-12-09)"
   sodipodi:docname="logo-omega.svg"
   xml:space="preserve"
   xmlns:inkscape="http://www.inkscape.org/namespaces/inkscape"
   xmlns:sodipodi="http://sodipodi.sourceforge.net/DTD/sodipodi-0.dtd"
   xmlns="http://www.w3.org/2000/svg"
   xmlns:svg="http://www.w3.org/2000/svg"><sodipodi:namedview
     id="namedview678"
     pagecolor="#ffffff"
     bordercolor="#000000"
     borderopacity="0.25"
     inkscape:showpageshadow="2"
     inkscape:pageopacity="0.0"
     inkscape:pagecheckerboard="0"
     inkscape:deskcolor="#d1d1d1"
     inkscape:document-units="mm"
     showgrid="false"
     inkscape:zoom="1.044421"
     inkscape:cx="-155.10987"
     inkscape:cy="80.427341"
     inkscape:window-width="1920"
     inkscape:window-height="1009"
     inkscape:window-x="1912"
     inkscape:window-y="-8"
     inkscape:window-maximized="1"
     inkscape:current-layer="layer1"
     showguides="true" /><defs
     id="defs673" /><g
     inkscape:label="Capa 1"
     inkscape:groupmode="layer"
     id="layer1"><g
       id="g1633"
       transform="matrix(1.1578908,0,0,1.1578908,-8.528109,-5.9841343)"><ellipse
         style="fill:#ffffff;fill-opacity:1;stroke:none;stroke-width:1.42547;stroke-dasharray:none;stroke-opacity:1"
         id="path779"
         cx="43.572784"
         cy="48.006062"
         rx="19.495342"
         ry="19.368677" /><ellipse
         style="fill:#ffffff;fill-opacity:1;stroke:none;stroke-width:1.16485;stroke-dasharray:none;stroke-opacity:1"
         id="path779-9"
         cx="33.692909"
         cy="28.372978"
         rx="15.44206"
         ry="16.328714" /><ellipse
         style="fill:#ffffff;fill-opacity:1;stroke:none;stroke-width:1.21049;stroke-dasharray:none;stroke-opacity:1"
         id="path779-2"
         cx="46.486084"
         cy="25.333019"
         rx="20.888659"
         ry="13.035423" /><path
         style="fill:#fc5757;fill-opacity:1;stroke-width:0.198865"
         d="M 27.385138,73.06203 C 24.97461,72.69684 22.58158,71.35974 20.960135,69.47211 19.98108,68.33231 18.929894,66.119866 18.659959,64.630871 18.520812,63.863337 18.446041,58.667353 18.446041,49.765725 c 0,-12.131575 -0.03442,-13.685156 -0.303261,-13.685156 -0.756922,0 -3.222746,-1.501239 -4.366945,-2.658674 -5.7066912,-5.772728 -3.134114,-15.23698 4.765985,-17.533608 0.894625,-0.260074 1.638476,-0.316468 3.171449,-0.240434 1.101477,0.05464 2.140668,0.157561 2.3093,0.228739 0.248778,0.104993 0.3532,-0.142274 0.553588,-1.310833 0.494066,-2.881167 2.217971,-5.5092129 4.669041,-7.1178119 1.762501,-1.156706 3.400849,-1.624865 5.706624,-1.63069 2.691843,-0.0068 4.569889,0.656198 6.711692,2.369407 l 0.845176,0.676048 0.845177,-0.676048 c 2.137421,-1.709706 4.015316,-2.373631 6.719019,-2.375487 1.526381,-7.52e-4 2.184022,0.09868 3.369484,0.51094 3.664553,1.274409 6.345204,4.4318169 6.998854,8.2436419 0.200388,1.168559 0.30481,1.415826 0.553587,1.310833 0.168632,-0.07118 1.207823,-0.174105 2.3093,-0.228739 2.261025,-0.112142 3.48896,0.150841 5.543779,1.187289 2.442058,1.231769 4.672341,4.230932 5.261029,7.074744 0.952266,4.600188 -1.419005,9.482073 -5.572589,11.472628 -0.801139,0.383933 -1.570996,0.698055 -1.710796,0.698055 -0.203884,0 -0.254197,2.708513 -0.254197,13.685156 0,8.901628 -0.07478,14.097612 -0.213917,14.865146 -0.657866,3.628839 -3.515169,6.870849 -7.129739,8.089689 -1.298806,0.43796 -1.398764,0.44092 -16.022965,0.47469 -8.093799,0.0187 -15.212611,-0.0413 -15.819578,-0.13322 z m 9.839509,-18.984191 c 2.435835,-0.613483 3.062456,-0.696025 5.284043,-0.696025 2.221587,0 2.848209,0.08254 5.284044,0.696025 2.986084,0.752082 3.679923,0.814233 5.295723,0.474375 1.718433,-0.361437 3.148847,-1.148777 4.448811,-2.44874 3.357947,-3.357939 3.504549,-8.532187 0.341444,-12.050325 -0.505394,-0.56211 -1.597581,-1.478367 -2.427094,-2.036126 -2.118119,-1.424213 -3.879733,-3.161872 -5.088037,-5.018858 -1.289396,-1.981596 -2.527299,-3.133357 -4.239606,-3.944582 -1.251733,-0.593017 -1.460231,-0.629305 -3.615285,-0.629305 -2.155054,0 -2.363552,0.0363 -3.615284,0.629305 -1.712308,0.811225 -2.950211,1.962986 -4.239607,3.944582 -1.200645,1.845208 -2.958395,3.583611 -5.071328,5.015499 -2.782014,1.885321 -4.109494,3.743465 -4.588258,6.422462 -0.504725,2.824292 0.385263,5.568462 2.4859,7.664988 1.277392,1.27489 2.534987,1.995185 4.182197,2.39536 1.6224,0.394155 2.638974,0.317648 5.562337,-0.418635 z M 27.006557,31.623543 c 2.833552,-1.875152 1.679304,-6.562796 -2.097405,-8.517991 -1.207582,-0.625156 -3.371062,-0.712974 -4.417168,-0.17929 -2.033609,1.03747 -2.589338,3.350425 -1.378922,5.739074 0.489851,0.966675 1.834483,2.36982 2.734701,2.85371 1.712548,0.920533 3.85995,0.964037 5.158794,0.104497 z m 35.644972,0.12104 c 3.30979,-1.464071 4.919389,-5.567011 3.094234,-7.887325 -0.749412,-0.952725 -1.86054,-1.358297 -3.438797,-1.25519 -2.308834,0.150842 -4.198741,1.432015 -5.267553,3.570889 -1.29123,2.583978 -0.448774,5.173969 1.933568,5.944457 0.816585,0.264096 2.661357,0.07712 3.678548,-0.372831 z M 37.910323,23.094722 c 2.372872,-1.57029 2.483337,-5.976296 0.214466,-8.553871 -2.201511,-2.501053 -5.296926,-2.251419 -6.735067,0.54317 -0.381595,0.741513 -0.479801,1.232175 -0.473382,2.365168 0.01481,2.61266 1.231927,4.758499 3.290211,5.800771 1.306209,0.661429 2.548374,0.609372 3.703772,-0.155238 z m 12.911172,0.141506 c 2.041267,-1.017198 3.264754,-3.176146 3.279546,-5.787039 0.02533,-4.4772 -4.293625,-6.219752 -7.208449,-2.908338 -2.454859,2.788861 -2.119563,7.426741 0.635498,8.790464 1.122515,0.555639 2.040778,0.52913 3.293405,-0.09509 z"
         id="path178" /></g></g></svg>
