<?xml version="1.0" encoding="UTF-8" standalone="no"?>
<svg
   xmlns:dc="http://purl.org/dc/elements/1.1/"
   xmlns:cc="http://creativecommons.org/ns#"
   xmlns:rdf="http://www.w3.org/1999/02/22-rdf-syntax-ns#"
   xmlns:svg="http://www.w3.org/2000/svg"
   xmlns="http://www.w3.org/2000/svg"
   xmlns:sodipodi="http://sodipodi.sourceforge.net/DTD/sodipodi-0.dtd"
   xmlns:inkscape="http://www.inkscape.org/namespaces/inkscape"
   width="297.72504"
   height="243.48782"
   viewBox="0 0 78.773079 64.42282"
   version="1.1"
   id="svg676"
   inkscape:version="1.0.2 (e86c870879, 2021-01-15)"
   sodipodi:docname="logo-omega-nav-mobile.svg"
   xml:space="preserve"><metadata
     id="metadata14"><rdf:RDF><cc:Work
         rdf:about=""><dc:format>image/svg+xml</dc:format><dc:type
           rdf:resource="http://purl.org/dc/dcmitype/StillImage" /><dc:title></dc:title></cc:Work></rdf:RDF></metadata><sodipodi:namedview
     id="namedview678"
     pagecolor="#ffffff"
     bordercolor="#000000"
     borderopacity="0.25"
     inkscape:showpageshadow="2"
     inkscape:pageopacity="0.0"
     inkscape:pagecheckerboard="0"
     inkscape:deskcolor="#d1d1d1"
     inkscape:document-units="mm"
     showgrid="false"
     inkscape:zoom="0.73851715"
     inkscape:cx="323.99059"
     inkscape:cy="227.30241"
     inkscape:window-width="958"
     inkscape:window-height="987"
     inkscape:window-x="1920"
     inkscape:window-y="30"
     inkscape:window-maximized="0"
     inkscape:current-layer="layer1"
     showguides="true"
     inkscape:document-rotation="0" /><defs
     id="defs673"><rect
       x="361.53528"
       y="96.138596"
       width="211.23409"
       height="86.660141"
       id="rect355" /></defs><g
     inkscape:label="Capa 1"
     inkscape:groupmode="layer"
     id="layer1"
     transform="translate(-4.5597518,-6.3173473)"><g
       id="g441"
       transform="matrix(0.65463348,0,0,0.65463348,8.2158308,9.5533624)"
       style="fill:#ff5757;fill-opacity:1"><path
         style="fill:#ff5757;fill-opacity:1;stroke-width:0.264583"
         d="m 114.55816,74.961823 c 0,-0.363802 0.0601,-0.51263 0.13345,-0.330729 0.0734,0.181901 0.0734,0.479558 0,0.661459 -0.0734,0.181901 -0.13345,0.03307 -0.13345,-0.33073 z M 57.84594,73.193584 c 0.190995,-0.07643 0.419201,-0.06703 0.507119,0.02088 0.08792,0.08792 -0.06835,0.150453 -0.347266,0.138965 -0.308226,-0.0127 -0.370919,-0.07539 -0.159853,-0.159851 z m -3.786849,-8.550511 c 0.26339,-0.291042 0.538422,-0.529167 0.611182,-0.529167 0.07276,0 -0.08321,0.238125 -0.346599,0.529167 -0.26339,0.291042 -0.538421,0.529167 -0.611182,0.529167 -0.07276,0 0.08321,-0.238125 0.346599,-0.529167 z M 5.0304617,59.483698 c 0.00539,-0.436563 0.06469,-0.583126 0.1317736,-0.325694 0.067083,0.257432 0.062672,0.614619 -0.0098,0.79375 -0.072476,0.179131 -0.127363,-0.03149 -0.1219708,-0.468056 z M 72.398024,52.820667 c 0.190995,-0.07643 0.4192,-0.06703 0.507119,0.02087 0.08792,0.08792 -0.06835,0.150453 -0.347266,0.138965 -0.308226,-0.0127 -0.370919,-0.07539 -0.159853,-0.159851 z m 5.392856,-7.624469 c 0.0054,-0.436563 0.06469,-0.583126 0.131774,-0.325695 0.06708,0.257432 0.06267,0.61462 -0.0098,0.793751 -0.07248,0.17913 -0.127362,-0.03149 -0.12197,-0.468056 z m -38.979081,-6.68073 c -0.329108,-0.419645 -0.319749,-0.429003 0.0999,-0.0999 0.254661,0.199721 0.463021,0.40808 0.463021,0.463021 0,0.217763 -0.217274,0.0776 -0.562917,-0.363125 z M 72.398024,37.21025 c 0.190995,-0.07643 0.4192,-0.06703 0.507119,0.02087 0.08792,0.08792 -0.06835,0.150453 -0.347266,0.138965 -0.308226,-0.0127 -0.370919,-0.07539 -0.159853,-0.159851 z M 39.340965,16.025884 c -0.329107,-0.419645 -0.319749,-0.429003 0.0999,-0.0999 0.254662,0.199721 0.463021,0.40808 0.463021,0.463021 0,0.217763 -0.217273,0.0776 -0.562917,-0.363125 z M 24.259715,9.4113009 c -0.329107,-0.419645 -0.319749,-0.4290033 0.0999,-0.099896 0.44073,0.3456438 0.580888,0.562917 0.363125,0.562917 -0.05494,0 -0.2633,-0.2083594 -0.463021,-0.4630209 z m 4.233333,-3.1750001 c -0.329107,-0.419644 -0.319749,-0.4290023 0.0999,-0.099895 0.440729,0.3456424 0.580887,0.5629156 0.363124,0.5629156 -0.05494,0 -0.2633,-0.2083594 -0.463021,-0.4630209 z"
         id="path447" /><path
         style="fill:#ff5757;fill-opacity:1;stroke-width:0.264583"
         d="m 0.58811772,92.622761 -0.50402809,-0.595312 0.59531252,0.504028 c 0.32742185,0.277215 0.59531255,0.545106 0.59531255,0.595313 0,0.211733 -0.2129351,0.05542 -0.68659698,-0.504029 z M -5.5835641,74.542901 c 0.012695,-0.308227 0.075391,-0.37092 0.1598525,-0.159854 0.07643,0.190995 0.067031,0.419201 -0.020889,0.507119 -0.087919,0.08792 -0.1504529,-0.06835 -0.1389635,-0.347265 z M 57.05219,73.193584 c 0.190995,-0.07643 0.419201,-0.06703 0.507119,0.02088 0.08792,0.08792 -0.06835,0.150453 -0.347266,0.138965 -0.308226,-0.0127 -0.370919,-0.07539 -0.159853,-0.159851 z m 26.050839,-3.788011 c 0,-0.654844 0.0516,-0.922734 0.114662,-0.595312 0.06307,0.327422 0.06307,0.863203 0,1.190625 -0.06306,0.327422 -0.114662,0.05953 -0.114662,-0.595313 z M 36.13357,52.826178 c 0.181901,-0.0734 0.479557,-0.0734 0.661458,0 0.181901,0.0734 0.03307,0.133453 -0.330729,0.133453 -0.363802,0 -0.51263,-0.06005 -0.330729,-0.133453 z m -2.613438,-1.610709 c -0.329107,-0.419645 -0.319749,-0.429004 0.0999,-0.0999 0.254661,0.19972 0.463021,0.40808 0.463021,0.46302 0,0.217763 -0.217273,0.07761 -0.562917,-0.363124 z m 7.77339,-6.283855 c 0.0029,-0.582083 0.05712,-0.789053 0.120406,-0.459935 0.06329,0.329117 0.06088,0.805367 -0.0053,1.058333 -0.06622,0.252965 -0.118005,-0.01633 -0.115068,-0.598398 z M 70.826383,19.730051 c -0.329107,-0.419645 -0.319749,-0.429003 0.0999,-0.0999 0.44073,0.345644 0.580887,0.562917 0.363125,0.562917 -0.05494,0 -0.2633,-0.208359 -0.463021,-0.463021 z M 77.7393,15.595259 c 0,-0.05494 0.208359,-0.2633 0.463021,-0.463021 0.419645,-0.329107 0.429003,-0.319749 0.0999,0.0999 -0.345644,0.44073 -0.562917,0.580888 -0.562917,0.363125 z M 30.609715,14.967551 c -0.329107,-0.419645 -0.319749,-0.429003 0.0999,-0.0999 0.254662,0.199721 0.463021,0.40808 0.463021,0.463021 0,0.217762 -0.217273,0.07761 -0.562917,-0.363125 z m 5.961737,-1.455208 -0.504028,-0.595313 0.595312,0.504029 c 0.559446,0.473662 0.715762,0.686596 0.504029,0.686596 -0.05021,0 -0.318098,-0.26789 -0.595313,-0.595312 z m 35.347014,0.495416 c 0,-0.05494 0.20836,-0.2633 0.463021,-0.463021 0.419645,-0.329107 0.429004,-0.319749 0.0999,0.0999 -0.345643,0.44073 -0.562917,0.580888 -0.562917,0.363125 z M 28.228465,12.850884 c -0.329107,-0.419645 -0.319749,-0.429003 0.0999,-0.0999 0.44073,0.345644 0.580888,0.562917 0.363125,0.562917 -0.05494,0 -0.2633,-0.208359 -0.463021,-0.463021 z m 46.071252,-0.959792 c 0,-0.05494 0.208359,-0.2633 0.46302,-0.46302 0.419645,-0.329108 0.429004,-0.319749 0.0999,0.0999 -0.345643,0.440729 -0.562916,0.580887 -0.562916,0.363124 z m 7.9375,-0.264583 c 0,-0.05494 0.208359,-0.2633 0.463021,-0.463021 0.419645,-0.329107 0.429003,-0.319749 0.0999,0.0999 -0.345644,0.44073 -0.562917,0.580888 -0.562917,0.363125 z m -5.55625,-1.8520833 c 0,-0.054941 0.208359,-0.2633001 0.46302,-0.4630209 0.419645,-0.3291072 0.429004,-0.3197489 0.0999,0.099896 -0.345643,0.4407297 -0.562916,0.5808874 -0.562916,0.3631248 z M 86.47055,7.9223423 c 0,-0.054941 0.20836,-0.2633001 0.463021,-0.4630209 0.419645,-0.3291072 0.429003,-0.3197489 0.0999,0.099896 C 86.687823,7.9999472 86.47055,8.140105 86.47055,7.9223423 Z M 21.084715,6.5008842 c -0.329107,-0.419644 -0.319749,-0.4290023 0.0999,-0.099896 0.254661,0.1997207 0.463021,0.4080801 0.463021,0.4630208 0,0.2177627 -0.217273,0.077605 -0.562917,-0.3631247 z m 5.55625,-1.8520834 c -0.329107,-0.419644 -0.319749,-0.4290023 0.0999,-0.099895 0.44073,0.3456435 0.580888,0.5629156 0.363125,0.5629156 -0.05494,0 -0.2633,-0.2083593 -0.463021,-0.4630208 z m -2.38125,-2.1166667 c -0.329107,-0.419644 -0.319749,-0.4290023 0.0999,-0.099895 0.44073,0.3456435 0.580888,0.5629156 0.363125,0.5629156 -0.05494,0 -0.2633,-0.2083594 -0.463021,-0.4630208 z m -2.38125,-2.11666674 c -0.329107,-0.419644 -0.319749,-0.42900231 0.0999,-0.0998948 0.254661,0.19971915 0.463021,0.40807853 0.463021,0.46302085 0,0.21776108 -0.217273,0.0776031 -0.562917,-0.36312608 z"
         id="path445" /><path
         style="fill:#ff5757;fill-opacity:1;stroke-width:0.264583"
         d="m 106.84347,93.210134 c -0.21828,-0.132773 -1.7661,-1.031875 -3.43959,-1.998004 -11.4102,-6.587279 -20.637497,-12.519356 -20.637497,-13.267513 0,-0.549989 0.664142,-1.797463 1.511012,-2.838164 l 0.584967,-0.71886 9.137021,5.444876 c 8.907777,5.308267 16.028917,9.619682 16.272067,9.851729 0.34892,0.332997 -2.15172,3.81127 -2.71964,3.782899 -0.17131,-0.0085 -0.49006,-0.12419 -0.70834,-0.256963 z M 0.69508612,92.49047 c -0.78345323,-0.839992 -1.27245484,-1.714064 -1.27245484,-2.27447 0,-0.215064 0.68460939,-0.858189 1.52135421,-1.429165 C 5.4594809,85.705555 19.233933,77.292223 22.508435,75.615434 l 2.051429,-1.050486 0.648594,0.79375 c 0.356727,0.436563 0.921864,1.304923 1.255863,1.929689 l 0.607269,1.135941 -0.652991,0.496205 c -0.359146,0.272915 -2.264146,1.442381 -4.233334,2.598817 -1.969188,1.156435 -6.85456,4.036139 -10.856383,6.399337 -7.8705089,4.647776 -9.0505832,5.299387 -9.5972507,5.299387 -0.1968529,0 -0.6632983,-0.327422 -1.03654518,-0.727604 z M -4.9387309,77.186289 c -0.2365885,-0.813837 -0.3938651,-1.915165 -0.3495034,-2.447396 0.072489,-0.869698 0.1878338,-1.002897 1.1389905,-1.315304 3.65264153,-1.199708 25.1606078,-6.223498 28.1701958,-6.579939 1.25407,-0.148524 1.271024,-0.140399 1.549752,0.742857 0.154998,0.491162 0.356727,1.428806 0.448289,2.08365 l 0.166479,1.190625 -15.167359,3.90366 c -8.3420462,2.147011 -15.2482053,3.903183 -15.34702,3.902604 -0.098814,-5.29e-4 -0.3732353,-0.666922 -0.6098239,-1.480757 z M 110.67993,77.853751 c -0.43657,-0.125979 -4.96094,-1.249344 -10.05417,-2.496368 -8.91174,-2.181947 -10.338108,-2.559058 -15.147397,-4.004752 l -2.182813,-0.656164 0.004,-1.505341 c 0.0021,-0.82794 0.115856,-1.682171 0.252505,-1.89829 0.353989,-0.559859 2.816776,-0.453115 6.009111,0.260453 3.602043,0.805145 18.683774,4.628057 21.984114,5.572527 1.49462,0.42772 2.77455,0.777674 2.84427,0.777674 0.28899,0 0.0981,2.466912 -0.25659,3.31579 -0.3565,0.853215 -0.46316,0.915649 -1.52136,0.890532 -0.62589,-0.01487 -1.49516,-0.130082 -1.93173,-0.256061 z M 54.5327,72.589913 c -1.047877,-0.638924 -2.101114,-2.208974 -2.329322,-3.472296 -0.218792,-1.211181 0.303096,-2.484837 1.611682,-3.933286 1.808383,-2.001663 3.03153,-2.285836 5.29744,-1.230754 1.582934,0.737068 2.370958,1.73119 2.779152,3.50601 0.516763,2.246865 -0.477057,4.518554 -2.312236,5.28534 C 58.25511,73.298258 55.558593,73.21543 54.5327,72.589913 Z M 22.441382,65.135846 C 21.932059,64.996556 19.069619,64.246161 16.080401,63.468302 13.091187,62.690443 9.4300148,61.678938 7.9444648,61.220513 l -2.701,-0.833498 0.00148,-1.113116 c 0.00193,-1.46482 0.4664295,-3.090592 0.9342845,-3.270125 0.3180147,-0.122034 19.8891547,4.569314 20.2123227,4.845044 0.195032,0.166405 -0.785056,3.962895 -1.105869,4.283708 -0.357677,0.357677 -1.5435,0.359061 -2.844297,0.0033 z m 61.435122,-0.352485 c -0.371301,-0.814912 -1.172417,-3.870355 -1.047525,-3.995243 0.146872,-0.146873 19.436631,-4.876295 19.888801,-4.876295 0.5235,0 1.07208,1.082749 1.44768,2.857294 0.16321,0.771146 0.29676,1.44187 0.29676,1.490495 0,0.105855 0.20053,0.04821 -5.459971,1.569453 -5.999001,1.61221 -13.996623,3.607758 -14.458921,3.607758 -0.202999,0 -0.503071,-0.294058 -0.666824,-0.653462 z M 34.147597,51.553984 C 31.16861,48.875621 30.588559,43.766104 32.837703,40.0155 c 1.026779,-1.712222 2.957131,-3.04808 4.019333,-2.781483 1.089885,0.273542 2.699226,1.925534 3.566414,3.660931 0.722148,1.445149 0.802174,1.850748 0.791736,4.01278 -0.0064,1.322826 -0.173079,2.857812 -0.370429,3.411085 -0.849517,2.381655 -2.944662,4.41801 -4.545553,4.41801 -0.617432,0 -1.179973,-0.309256 -2.151607,-1.182839 z m 36.522764,0.412864 c -3.767074,-2.728854 -3.464754,-12.152334 0.454893,-14.179262 3.166689,-1.637559 6.614046,2.234444 6.614046,7.428765 0,2.149393 -0.833827,4.828897 -1.77932,5.717863 -2.064404,1.940975 -3.617222,2.244114 -5.289619,1.032634 z M 7.1371806,37.133804 C 5.7042803,36.785183 5.5480909,36.44018 5.8761237,34.348281 6.3118044,31.569902 13.264408,-3.3570812 13.605189,-4.4793244 c 0.102613,-0.3379174 0.419752,-0.4630209 1.173764,-0.4630209 1.143212,0 0.748215,-0.3222506 13.747846,11.2158995 8.249404,7.3219658 11.641667,10.4847608 11.641667,10.8541688 0,0.484341 -1.506242,2.422081 -2.273515,2.924816 -0.674364,0.441862 -0.703357,0.432096 -2.049534,-0.690362 C 33.813753,17.668156 26.995941,11.699457 23.647797,8.6836967 18.935385,4.4391034 17.464926,3.2283505 17.315641,3.4698995 17.238602,3.5945518 16.388805,7.4975564 15.427203,12.143243 12.436495,26.591949 11.353374,31.604731 10.600737,34.480572 l -0.7270638,2.778125 -0.9260417,0.04514 C 8.4383086,37.328656 7.6236057,37.252149 7.1371806,37.133804 Z M 99.075861,36.795677 C 98.871553,36.468255 97.444866,29.890051 95.905444,22.177447 92.510564,5.1688558 92.318662,4.3119314 91.865656,4.1380967 91.388234,3.9548926 88.850244,5.8191971 85.249646,8.9979503 80.682546,13.029973 74.843829,18.096807 73.267124,19.396377 l -1.429467,1.178211 -1.55444,-1.690079 c -0.854943,-0.929542 -1.52137,-1.775907 -1.48095,-1.880809 0.15606,-0.405022 20.237284,-18.1429863 23.880128,-21.0935765 1.525024,-1.2352214 2.11749,-1.1438383 2.621217,0.4043021 1.701305,5.2287264 7.466678,34.4280204 7.635798,38.6721964 l 0.0676,1.696673 -1.32292,0.348744 c -1.824755,0.481037 -2.180704,0.448779 -2.608229,-0.236362 z"
         id="path443" /></g></g></svg>
